<svg xmlns="http://www.w3.org/2000/svg" version="1.1" xmlns:xlink="http://www.w3.org/1999/xlink" xmlns:svgjs="http://svgjs.dev/svgjs" viewBox="0 0 7.557438886867558 6.907905356433964"><g transform="matrix(1,0,0,1,3.7788063822213136,6.028604486310913)"><rect width="7.557438886867558" height="7.557438886867558" x="-3.7788063822213136" y="-6.35337125152771" fill="#ffffff"></rect><g><path d=" M -2.0339066764562284 -0.8488308061737897 Q -1.9979664000875073 -0.7970882073355021 -1.9824357475105447 -0.7536940967842569 Q -1.9669050949335825 -0.7102999862330117 -1.9589826629328004 -0.6585773115999942 L -2.0887941874507407 -0.5562349054218699 L -2.0979218766872414 -0.5693758829046096 L -2.038634438181985 -0.675087753739845 Q -2.0347832366993646 -0.7203775787244954 -2.043502532122202 -0.7557184033799739 Q -2.05222182754504 -0.7910592280354525 -2.0716181671726033 -0.8189838051862743 Q -2.104706040654918 -0.8666198485612058 -2.1484564727739777 -0.8770193528472534 Q -2.192206904893038 -0.8874188571333013 -2.234915081711942 -0.8577538671146745 Q -2.2685888365114626 -0.8343641634461418 -2.278157067602204 -0.8051931340883325 Q -2.287725298692945 -0.7760221047305232 -2.2829183239292674 -0.7349198785910382 Q -2.2781113491655893 -0.6938176524515532 -2.2692299669791334 -0.6354556695306646 Q -2.2566504231429843 -0.5577462423234435 -2.2657713271814663 -0.5051433991538885 Q -2.274892231219949 -0.4525405559843335 -2.3307413855215926 -0.41374787672920615 Q -2.3603085848577567 -0.3932105759470799 -2.397805916564666 -0.3884724207299034 Q -2.435303248271574 -0.38373426551272694 -2.4741824095458007 -0.3932558629949099 Q -2.513061570820027 -0.40277746047709273 -2.547310329662174 -0.4240382816694278 Q -2.581559088504321 -0.4452991028617628 -2.6043783115955725 -0.4781515465686121 Q -2.6311908987277928 -0.5167531679241599 -2.6455461803769422 -0.5567022090737745 Q -2.6599014620260912 -0.5966512502233892 -2.6654731521712467 -0.6414837860531455 L -2.5397681831166627 -0.7409737893448634 L -2.530640493880162 -0.7278328118621236 L -2.588855790777357 -0.6240832132741221 Q -2.5911331896211367 -0.5835392438766105 -2.5853351166312066 -0.5559098691170643 Q -2.579537043641277 -0.5282804943575182 -2.5607111845909944 -0.5011772282993676 Q -2.5361805197678993 -0.4658608513145046 -2.496103801627917 -0.45899742191453174 Q -2.4560270834879345 -0.452133992514559 -2.4198893954104004 -0.47723513791493544 Q -2.3796451518695103 -0.5051886862017184 -2.374048098881795 -0.546212130692067 Q -2.3684510458940795 -0.5872355751824154 -2.3809617701837276 -0.6613401079570603 Q -2.3913725831331387 -0.7271627102584914 -2.392141821979962 -0.7747222337169591 Q -2.392911060826785 -0.8222817571754268 -2.3766469257369787 -0.8567125269864626 Q -2.3603827906471726 -0.8911432967974985 -2.31849592492094 -0.920237806238844 Q -2.279894303565392 -0.9470503933710643 -2.2389174926836017 -0.951161472299766 Q -2.197940681801812 -0.9552725512284675 -2.1589927009810843 -0.9421460593137083 Q -2.1200447201603567 -0.9290195673989492 -2.087814829276637 -0.9045300975471229 Q -2.055584938392917 -0.8800406276952966 -2.0339066764562284 -0.8488308061737897 M -2.27825240585301 -1.2517770487292874 L -2.2932388558461305 -1.2461729148440464 L -2.3660810759795154 -1.326764545712515 L -2.880303641368452 -1.1344727017751808 L -2.824962819251697 -0.9864815080931186 L -2.6586598533258674 -0.9728681497906103 L -2.6530557194406263 -0.9578816997974902 L -2.846006263102049 -0.8857284760250113 L -3.054059733591624 -1.4421004320195991 L -2.8611091899302012 -1.5142536557920778 L -2.85550505604496 -1.4992672057989576 L -2.9724215921071027 -1.3808124735370941 L -2.9167305116225193 -1.2318846267304622 L -2.402507946233582 -1.4241764706677964 L -2.4007681747691936 -1.5337254240870406 L -2.3857817247760735 -1.5393295579722817 L -2.27825240585301 -1.2517770487292874 M -2.476067783305513 -2.1357810115409084 Q -2.471959522424995 -2.058890685800035 -2.496665044594253 -1.9964836575552587 Q -2.521370566763511 -1.9340766293104825 -2.5794443920112324 -1.896424526831376 Q -2.6375182172589535 -1.8587724243522694 -2.7343800561792744 -1.853597082723565 L -3.074894355888856 -1.8354033559669862 L -3.1105157052175962 -1.7523845660938504 L -3.1264929157611543 -1.7515309014953013 L -3.1407384437494437 -2.018150602440927 L -3.1247612332058856 -2.019004267039476 L -3.080496529816835 -1.9402538001590863 L -2.7509665623559494 -1.9578606325041625 Q -2.668084782661242 -1.9622890176091363 -2.621041068173724 -1.9908396555567704 Q -2.5739973536862055 -2.0193902935044044 -2.555374842493796 -2.064448057284785 Q -2.536752331301386 -2.1095058210651656 -2.5396868033588986 -2.1644274823086462 Q -2.542034381004909 -2.208364811303431 -2.5625088070987476 -2.244824348822823 Q -2.582983233192586 -2.281283886342215 -2.62562458888165 -2.3015376461166066 Q -2.6682659445707135 -2.3217914058909983 -2.735170513721863 -2.3182166853845736 L -3.1016477805647265 -2.2986357536553523 L -3.1343649599395635 -2.1987478856545044 L -3.1503421704831216 -2.1978942210559556 L -3.1636273257980427 -2.4465395601400783 L -3.1476501152544847 -2.4473932247386276 L -3.104383987524407 -2.3685894038208284 L -2.7628711121558527 -2.3868364846148165 Q -2.666009273235532 -2.392011826243521 -2.604254019406567 -2.360762208253533 Q -2.542498765577603 -2.329512590263545 -2.5113374048818167 -2.2710919637726636 Q -2.4801760441860305 -2.2126713372817814 -2.476067783305513 -2.1357810115409084 M -2.4870294521329757 -2.615998269926574 L -2.502443901069486 -2.6202871816747573 L -2.519267407685584 -2.709045108786301 L -3.0472122837610733 -2.8559403361615843 L -3.107461021827529 -2.7886269677909583 L -3.1228754707640394 -2.7929158795391418 L -3.041386147548554 -3.0857904093328434 Q -3.0113637653112697 -3.193691551888418 -2.952614544271869 -3.2593461711262424 Q -2.8938653232324683 -3.3250007903640664 -2.817229550405447 -3.346754142363361 Q -2.740593777578426 -3.368507494362656 -2.6577411145446814 -3.3454545937161697 Q -2.582595675979192 -3.3245461489437753 -2.5262486126911456 -3.280842505402157 Q -2.4699015494030987 -3.2371388618605383 -2.436658966330248 -3.17754707827719 Q -2.403416383257397 -3.117955294693842 -2.3949622331461615 -3.047614855784942 Q -2.3865080830349257 -2.9772744168760417 -2.40741652780732 -2.9021289783105524 L -2.4870294521329757 -2.615998269926574 M -2.995636517904358 -3.045035392618101 L -3.0200297034721517 -2.957365714291697 L -2.490158021279598 -2.8099343729478905 L -2.4617439809478827 -2.9120550971522734 Q -2.4402994222069654 -2.9891273418348265 -2.457294176564881 -3.053021225143905 Q -2.4742889309227967 -3.116915108452983 -2.525228452510404 -3.163266107799553 Q -2.576167974098011 -3.2096171071461224 -2.657093831014692 -3.2321338938240856 Q -2.737056284872841 -3.2543826235177873 -2.805712771035322 -3.2407889886903734 Q -2.874369257197803 -3.22719535386296 -2.9233424087357065 -3.178023406286669 Q -2.9723155602736107 -3.1288514587103777 -2.995636517904358 -3.045035392618101 M -2.2473748465388486 -3.3714989967996742 L -2.2608916697616253 -3.3800602753235984 L -2.2513422552912004 -3.469892389198716 L -2.714293450671301 -3.76311617864312 L -2.7914269812556087 -3.7160904573876232 L -2.804943804478386 -3.7246517359115474 L -2.536333690790264 -4.148742064526165 L -2.391027841145415 -4.05670832039398 L -2.399589119669339 -4.043191497171203 L -2.533211083489335 -4.050883752034869 L -2.658954861809472 -3.852355410950337 L -2.4587369178220926 -3.72554147281471 L -2.369913653136379 -3.8657785137510174 L -2.413587899760948 -3.95381010002422 L -2.405026621237024 -3.967326923246997 L -2.2183255004724214 -3.849074263635294 L -2.2268867789963456 -3.8355574404125172 L -2.3234495733080847 -3.8363491188250283 L -2.412272837993798 -3.69611207788872 L -2.1943140635265244 -3.5580614616904427 L -2.054123127697266 -3.77939944196341 L -2.1303216453739857 -3.9057868855797384 L -2.1217603668500615 -3.919303708802515 L -1.9637824954338594 -3.819243766054151 L -2.2473748465388486 -3.3714989967996742 M -1.8823699547199768 -3.9325636685609267 L -1.8927817425399471 -3.9447125234202094 L -1.8573076343647543 -4.027794336407016 L -2.212609893721242 -4.442374008480039 L -2.3006851110450777 -4.422205813385805 L -2.3110968988650478 -4.434354668245088 L -2.191886260558336 -4.536520336228547 L -1.5945760434138792 -4.428120592248951 L -1.865282526733108 -4.7439908185903015 L -1.9688695127009181 -4.706577768218744 L -1.9792813005208885 -4.718726623078027 L -1.7871775330584803 -4.883363017981308 L -1.77676574523851 -4.871214163122025 L -1.812131286723746 -4.789542390302672 L -1.415181876087377 -4.326367298792518 L -1.4478319235216994 -4.298385619026348 L -2.097638663530806 -4.415791754465419 L -1.8035056576166442 -4.072586604690681 L -1.699918671648834 -4.109999655062238 L -1.6895068838288636 -4.097850800202956 L -1.8823699547199768 -3.9325636685609267 M -1.124879982389958 -4.491993435377761 L -1.1313241510998373 -4.506638321503595 L -1.0549887292052147 -4.58392935179929 L -1.2761042680629437 -5.086432006991932 L -1.420722518555544 -5.022795840981875 L -1.424892358539443 -4.855988729519238 L -1.439537244665276 -4.849544560809359 L -1.5225059168049704 -5.038097469679458 L -0.9788145193834223 -5.277337233033722 L -0.8958458472437281 -5.0887843241636235 L -0.9104907333695611 -5.082340155453744 L -1.035378952369565 -5.192358030160571 L -1.1809125082450298 -5.128319103606147 L -0.9597969693873005 -4.625816448413504 L -0.8503253985604177 -4.630285808624401 L -0.8438812298505385 -4.615640922498568 L -1.124879982389958 -4.491993435377761 M -0.6930274511891801 -4.891184543191277 L -0.7079546726531514 -4.959574440539976 L -0.43928007592612056 -5.018217096291291 L -0.4243528544621492 -4.949827198942593 L -0.6930274511891801 -4.891184543191277 M -0.002489990234375239 -4.751611308495556 L -0.25848999023437524 -5.364611308495555 L -0.3274899902343753 -5.400611308495556 L -0.3274899902343753 -5.416611308495556 L -0.06248999023437529 -5.416611308495556 L -0.06248999023437529 -5.400611308495556 L -0.1494899902343753 -5.362611308495556 L 0.0375100097656248 -4.912611308495555 L 0.0425100097656248 -4.912611308495555 L 0.22751000976562474 -5.365611308495556 L 0.14451000976562467 -5.400611308495556 L 0.14451000976562467 -5.416611308495556 L 0.35551000976562463 -5.416611308495556 L 0.35551000976562463 -5.400611308495556 L 0.2985100097656248 -5.369611308495556 L 0.0375100097656248 -4.751611308495556 L -0.002489990234375239 -4.751611308495556 M 0.7542523248117912 -4.629109325677479 Q 0.6856686221305017 -4.6510245196425 0.6348483406195118 -4.694033809187246 Q 0.5840280591085217 -4.737043098731991 0.5545361542947685 -4.794233373695978 Q 0.5250442494810154 -4.851423648659966 0.5201018808532244 -4.918091279428931 Q 0.5151595122254333 -4.984758910197896 0.5376834615783713 -5.0552477157314435 Q 0.5602074109313093 -5.125736521264991 0.6028926136099694 -5.177185267336025 Q 0.6455778162886294 -5.228634013407059 0.7027680912526171 -5.258125918220812 Q 0.7599583662166048 -5.287617823034565 0.8263019101194845 -5.2931886562224 Q 0.8926454540223642 -5.298759489410235 0.9612291567036537 -5.276844295445214 Q 1.0298128593849432 -5.254929101480194 1.0806331408959333 -5.211919811935448 Q 1.1314534224069233 -5.168910522390703 1.1609453272206762 -5.111720247426716 Q 1.1904372320344294 -5.054529972462728 1.1958558763752851 -4.987710152846783 Q 1.2012745207161406 -4.920890333230839 1.1787505713632025 -4.850401527697292 Q 1.1562266220102646 -4.779912722163744 1.11306514361854 -4.728616164939689 Q 1.0699036652268155 -4.677319607715635 1.0127133902628276 -4.647827702901882 Q 0.95552311529884 -4.618335798088129 0.8891795713959604 -4.612764964900294 Q 0.8228360274930807 -4.607194131712459 0.7542523248117912 -4.629109325677479 M 0.7885222380323027 -4.670649343104758 Q 0.846627875026173 -4.652082303773282 0.9001853268347838 -4.668562575487314 Q 0.9537427786433946 -4.685042847201347 0.9961630219723493 -4.732377009873906 Q 1.0385832653013038 -4.779711172546465 1.062629103124035 -4.854962735210657 Q 1.0921537394380212 -4.947360223545172 1.0837394766138926 -5.026160288146203 Q 1.075325213789764 -5.1049603527472325 1.0351099931110126 -5.159803182960117 Q 0.9948947724322613 -5.214646013173002 0.9310738268816169 -5.23503931866823 Q 0.8729681898877466 -5.253606357999706 0.818610375499986 -5.237906739692697 Q 0.7642525611122255 -5.222207121385688 0.7213560420702064 -5.175025147560108 Q 0.6784595230281874 -5.1278431737345285 0.6544136852054562 -5.052591611070336 Q 0.62488904889147 -4.960194122735821 0.6336273985816838 -4.880765593574747 Q 0.6423657482718976 -4.801337064413674 0.6830572446637134 -4.746342045353809 Q 0.7237487410555292 -4.691347026293944 0.7885222380323027 -4.670649343104758 M 1.1959904641903842 -4.454591469283668 L 1.2044066973390792 -4.468199078169391 L 1.295186275750147 -4.4590849054966375 L 1.583442261092948 -4.925145509832652 L 1.5347438484253546 -5.002297726934021 L 1.5431600815740494 -5.015905335819744 L 1.7702370548545527 -4.875459445150898 L 1.761820821705858 -4.861851836265174 L 1.6718917188501476 -4.8704399943661345 L 1.383635733507347 -4.404379390030121 L 1.4314836706195826 -4.327753187500544 L 1.4230674374708876 -4.314145578614822 L 1.1959904641903842 -4.454591469283668 M 1.7754675978335315 -3.998360820096401 Q 1.7024076486382724 -4.0709641521383 1.6788138986976446 -4.153622091646487 Q 1.6552201487570166 -4.236280031154674 1.67759476353423 -4.316960738969934 Q 1.6999693783114436 -4.397641446785193 1.7655238431648086 -4.4636081970294565 Q 1.8162756869222523 -4.514679229476627 1.8812493939916577 -4.540338874635107 Q 1.946223101061063 -4.565998519793586 2.015869451916063 -4.567277508684178 Q 2.085515802771063 -4.568556497574768 2.1502922276496594 -4.544364251297344 Q 2.2150686525282555 -4.520172005019919 2.265430365080327 -4.470125047981329 Q 2.301605679730407 -4.434175825319806 2.321850112386346 -4.404894210841791 Q 2.342094545042285 -4.375612596363775 2.3541995316095634 -4.34878035269676 Q 2.366304518176842 -4.321948109029747 2.3762970611756833 -4.292280802370458 L 2.2550831445903783 -4.161792540729608 L 2.2423153864785856 -4.1744805016689694 L 2.2850075871676534 -4.315329271632801 Q 2.277807991986748 -4.356319097556207 2.2660554487788964 -4.38350600117077 Q 2.2543029055710444 -4.410692904785334 2.2301860291376583 -4.434659053226349 Q 2.181242956375786 -4.483296236827233 2.116854440266586 -4.496529490140583 Q 2.052465924157386 -4.509762743453933 1.9853620408145582 -4.4869248617589905 Q 1.918258157471731 -4.464086980064048 1.8597525598069 -4.4052134287707805 Q 1.7941980949535352 -4.339246678526518 1.7689573849503228 -4.270577860577366 Q 1.7437166749471107 -4.201909042628214 1.7559302743324214 -4.140428736919352 Q 1.7681438737177322 -4.07894843121049 1.8128310271090071 -4.034540567922727 Q 1.8497156616541863 -3.997886458542351 1.8847649319941695 -3.9827934585544504 Q 1.9198142023341527 -3.9677004585665494 1.9530680070551558 -3.961440708445547 L 2.079539752538408 -3.9936571265335257 L 2.0915981907551013 -3.981674052313018 L 1.9695995902785113 -3.875932189828223 Q 1.9228820070793544 -3.891342167765581 1.8775475982604268 -3.9166560251768554 Q 1.8322131894414995 -3.9419698825881304 1.7754675978335315 -3.998360820096401 M 2.0452856473782313 -3.7118055529635985 L 2.0592716861408356 -3.7195766995798274 L 2.133578212792006 -3.6682002448847157 L 2.6126000404112055 -3.9343620164905606 L 2.6082237075730568 -4.024594204266818 L 2.622209746335661 -4.0323653508830475 L 2.8660294714198478 -3.5935533847063352 L 2.715679554721851 -3.510013558581873 L 2.707908408105622 -3.5239995973444773 L 2.7786110334287355 -3.6376443894487323 L 2.6644723175028715 -3.843064333774484 L 2.4573041183317943 -3.727954224521591 L 2.537929764475171 -3.5828490723595707 L 2.6361269978180735 -3.579067093538972 L 2.643898144434303 -3.5650810547763676 L 2.45071598402583 -3.457742092139704 L 2.442944837409601 -3.4717281309023083 L 2.4898527562287183 -3.5561357558662836 L 2.4092271100853417 -3.7012409080283035 L 2.1837022350383464 -3.57593116884161 L 2.3109547608790972 -3.3469097841039637 L 2.4583955604625283 -3.3533293337921104 L 2.466166707078757 -3.339343295029506 L 2.3027048790408187 -3.2485180189523293 L 2.0452856473782313 -3.7118055529635985 M 2.553668424997164 -3.189185172784244 L 2.6206308921173243 -3.209581937164446 L 2.700761037896688 -2.946515102049531 L 2.633798570776528 -2.926118337669329 L 2.553668424997164 -3.189185172784244 M 2.467780343162141 -2.7455990053944737 L 2.483758168022789 -2.746441093704832 L 2.527965802245597 -2.667658576123693 L 3.0752063037228097 -2.6965001007534486 L 3.1108877938032444 -2.7794930598863763 L 3.126865618663893 -2.7803351481967344 L 3.1408127063041946 -2.5157024239422427 L 3.124834881443546 -2.514860335631885 L 3.080732508259533 -2.5916456251054427 L 2.845059591564967 -2.5792248225276646 L 2.8621645103691105 -2.2546752550457407 L 3.097837427063676 -2.267096057623519 L 3.1335715476635086 -2.3490904027026565 L 3.1495493725241572 -2.349932491013014 L 3.163496460164459 -2.0852997667585225 L 3.1475186353038103 -2.0844576784481648 L 3.103311001081002 -2.1632401960293035 L 2.5560704996037895 -2.134398671399548 L 2.5203890095233548 -2.05140571226662 L 2.504411184662706 -2.050563623956262 L 2.4904640970224046 -2.315196348210754 L 2.506441921883053 -2.3160384365211115 L 2.5505969255864636 -2.2382545329937633 L 2.807240737410631 -2.251780576478886 L 2.7901358186064877 -2.5763301439608095 L 2.5334920067823203 -2.5628041004756867 L 2.4977052556630905 -2.48180836945034 L 2.481727430802442 -2.4809662811399824 L 2.467780343162141 -2.7455990053944737 M 2.3833015977186602 -1.5829452367572205 Q 2.40451616243318 -1.6569651141144108 2.4482388249472966 -1.707889850566126 Q 2.4919614874614133 -1.758814587017841 2.559144541020924 -1.7754485076146191 Q 2.626327594580435 -1.792082428211397 2.7195734141083237 -1.765357586947652 L 3.0473757281187375 -1.6714073717833526 L 3.1081442324844994 -1.738251884476231 L 3.1235249862210583 -1.7338436632368504 L 3.049962794288894 -1.477177335258022 L 3.034582040552335 -1.4815855564974028 L 3.018446776235302 -1.5704711753871843 L 2.701218730418773 -1.6613907384494095 Q 2.621431070410373 -1.6842583861286964 2.567644801132435 -1.6726270819386606 Q 2.513858531854497 -1.6609957777486246 2.4815486841669667 -1.6244844953497743 Q 2.449238836479436 -1.5879732129509243 2.4340855759690654 -1.5351018719815026 Q 2.4219629675607686 -1.4928047992059654 2.4294151955388665 -1.4516591518278714 Q 2.4368674235169645 -1.4105135044497774 2.4705621924032855 -1.3774504956680977 Q 2.5042569612896064 -1.3443874868864183 2.5686638675614475 -1.325928060446512 L 2.9214599063937694 -1.224814485768219 L 2.9849895516093032 -1.308552076961114 L 3.000370305345862 -1.3041438557217333 L 2.931767362308001 -1.0647808756965338 L 2.9163866085714423 -1.0691890969359146 L 2.901212641362944 -1.1577992019982346 L 2.5724490302439955 -1.2520249309899953 Q 2.479203210716107 -1.2787497722537404 2.431030611251425 -1.3284453521458732 Q 2.3828580117867433 -1.3781409320380058 2.372472522395442 -1.4435331457190181 Q 2.362087033004141 -1.5089253594000305 2.3833015977186602 -1.5829452367572205 M 2.2312722195094064 -1.129254880685501 L 2.244643462833766 -1.1204679670088582 L 2.2335878206566617 -1.0308087634876812 L 2.691552904515979 -0.7298569700626735 L 2.7694647633148812 -0.7755816052006377 L 2.782836006639241 -0.7667946915239952 L 2.6351060204506878 -0.5419906631331989 Q 2.598310819429747 -0.4859985817124429 2.5551404821452275 -0.45034999157565303 Q 2.511970144860708 -0.41470140143886325 2.4680597526620027 -0.4070608872574829 Q 2.4241493604632973 -0.39942037307610256 2.3823642250746735 -0.42687947831561057 Q 2.3397433869782773 -0.45488776565990874 2.3234473955656023 -0.5074775998855272 Q 2.307151404152928 -0.5600674341111457 2.3283547743291737 -0.625109090710352 Q 2.2683507702999997 -0.5556503295605386 2.203714824115204 -0.536501061668628 Q 2.1390788779304075 -0.5173517937767175 2.083086796509652 -0.5541469947976582 Q 2.0371231475821654 -0.584352010561117 2.0199914534617185 -0.6374910268915257 Q 2.002859759341271 -0.6906300432219343 2.015467300039159 -0.7553374610158095 Q 2.028074840737047 -0.8200448788096845 2.0709110449106793 -0.8852296900159377 L 2.2312722195094064 -1.129254880685501 M 2.605068652562116 -0.5964310574220595 L 2.634724486220785 -0.6415590036417732 L 2.4358272417709355 -0.7722643445818314 L 2.403425497588316 -0.7229578848232552 Q 2.3644335681482147 -0.6636229925714094 2.368922250002345 -0.6140059417197878 Q 2.373410931856476 -0.5643888908681663 2.4185388780761894 -0.5347330572094977 Q 2.5204946084244315 -0.4677328404250981 2.605068652562116 -0.5964310574220595 M 2.3415594267230895 -0.7253220497284145 L 2.391534998258994 -0.8013709961357098 L 2.1750879969459227 -0.9436091612763613 L 2.121268150676487 -0.8617102959146586 Q 2.0789811286076447 -0.7973611874161779 2.0850456737781777 -0.7401272700954619 Q 2.091110218948711 -0.6828933527747458 2.1387452732917422 -0.6515899728017067 Q 2.1947373547124984 -0.6147947717807659 2.245357333369002 -0.6353767483820324 Q 2.2959773120255065 -0.655958724983299 2.3415594267230895 -0.7253220497284145" fill="#0d0d0d" fill-rule="nonzero"></path></g><g><path d=" M -2.4826779409555293 0.0019230769230768607 L -2.39344717172476 0.1488461538461538 L -2.30344717172476 0.0019230769230768607 L -2.2742164024939906 0.0019230769230768607 L -2.3799856332632214 0.17346153846153842 L -2.3799856332632214 0.27499999999999997 L -2.4069087101862983 0.27499999999999997 L -2.4069087101862983 0.17269230769230764 L -2.512293325570914 0.0019230769230768607 L -2.4826779409555293 0.0019230769230768607 M -2.1380610539362985 0.2769230769230769 Q -2.1669072077824523 0.2769230769230769 -2.190368746243991 0.26538461538461533 Q -2.213830284705529 0.25384615384615383 -2.230753361628606 0.2340384615384615 Q -2.247676438551683 0.2142307692307692 -2.256907207782452 0.18942307692307686 Q -2.2661379770132215 0.16461538461538455 -2.2661379770132215 0.1384615384615384 Q -2.2661379770132215 0.1111538461538461 -2.256522592397837 0.0863461538461538 Q -2.2469072077824523 0.061538461538461486 -2.2294072077824523 0.042115384615384555 Q -2.211907207782452 0.022692307692307623 -2.188445669320914 0.011346153846153784 Q -2.1649841308593754 -5.551115123125783e-17 -2.137676438551683 -5.551115123125783e-17 Q -2.108830284705529 -5.551115123125783e-17 -2.085368746243991 0.01192307692307687 Q -2.0619072077824523 0.023846153846153795 -2.045176438551683 0.043846153846153785 Q -2.028445669320914 0.06384615384615377 -2.0192149000901445 0.0884615384615384 Q -2.009984130859375 0.11307692307692302 -2.009984130859375 0.13884615384615379 Q -2.009984130859375 0.1661538461538461 -2.01959951547476 0.1909615384615384 Q -2.0292149000901447 0.2157692307692307 -2.046522592397837 0.23519230769230764 Q -2.063830284705529 0.2546153846153846 -2.087291823167068 0.26576923076923076 Q -2.110753361628606 0.2769230769230769 -2.1380610539362985 0.2769230769230769 M -2.2392149000901447 0.1384615384615384 Q -2.2392149000901447 0.16076923076923072 -2.231907207782452 0.1813461538461538 Q -2.22459951547476 0.20192307692307687 -2.2111379770132213 0.21788461538461534 Q -2.197676438551683 0.23384615384615381 -2.179022592397837 0.24326923076923074 Q -2.1603687462439907 0.25269230769230766 -2.1380610539362985 0.25269230769230766 Q -2.11459951547476 0.25269230769230766 -2.0959456693209138 0.24288461538461534 Q -2.0772918231670676 0.23307692307692304 -2.064022592397837 0.2167307692307692 Q -2.050753361628606 0.20038461538461533 -2.043830284705529 0.17999999999999994 Q -2.0369072077824524 0.15961538461538455 -2.0369072077824524 0.1384615384615384 Q -2.0369072077824524 0.11615384615384611 -2.0442149000901444 0.09576923076923072 Q -2.051522592397837 0.07538461538461533 -2.065176438551683 0.05923076923076917 Q -2.0788302847055293 0.04307692307692301 -2.0972918231670676 0.033846153846153776 Q -2.115753361628606 0.02461538461538454 -2.1380610539362985 0.02461538461538454 Q -2.1611379770132215 0.02461538461538454 -2.1797918231670677 0.034230769230769176 Q -2.198445669320914 0.043846153846153785 -2.2117149000901444 0.06019230769230763 Q -2.2249841308593754 0.07653846153846147 -2.23209951547476 0.09692307692307686 Q -2.2392149000901447 0.11730769230769225 -2.2392149000901447 0.1384615384615384 M -1.8442239145132215 0.2769230769230769 Q -1.876531606820914 0.2769230769230769 -1.8988392991286063 0.26538461538461533 Q -1.9211469914362984 0.25384615384615383 -1.9342239145132216 0.2344230769230769 Q -1.9473008375901446 0.21499999999999997 -1.9532623760516832 0.19038461538461532 Q -1.9592239145132215 0.16576923076923072 -1.9592239145132215 0.13961538461538456 L -1.9592239145132215 0.0019230769230768607 L -1.9326854529747601 0.0019230769230768607 L -1.9326854529747601 0.13961538461538456 Q -1.9326854529747601 0.16076923076923072 -1.928262376051683 0.1811538461538461 Q -1.9238392991286062 0.2015384615384615 -1.9138392991286062 0.21769230769230766 Q -1.9038392991286062 0.23384615384615381 -1.8869162222055293 0.24326923076923074 Q -1.8699931452824523 0.25269230769230766 -1.844608529897837 0.25269230769230766 Q -1.8184546837439908 0.25269230769230766 -1.8013392991286061 0.24288461538461534 Q -1.7842239145132215 0.23307692307692304 -1.7744162222055293 0.21692307692307689 Q -1.764608529897837 0.20076923076923073 -1.7603777606670676 0.18057692307692302 Q -1.7561469914362986 0.16038461538461535 -1.7561469914362986 0.13961538461538456 L -1.7561469914362986 0.0019230769230768607 L -1.7292239145132215 0.0019230769230768607 L -1.7292239145132215 0.13961538461538456 Q -1.7292239145132215 0.16692307692307687 -1.7353777606670677 0.19192307692307686 Q -1.741531606820914 0.21692307692307689 -1.75518545297476 0.23576923076923073 Q -1.7688392991286062 0.2546153846153846 -1.790762376051683 0.26576923076923076 Q -1.81268545297476 0.2769230769230769 -1.8442239145132215 0.2769230769230769 M -1.6611451134314907 0.27499999999999997 L -1.6611451134314907 0.0019230769230768607 L -1.5457604980468753 0.0019230769230768607 Q -1.5280681903545676 0.0019230769230768607 -1.5134528057391832 0.009230769230769154 Q -1.4988374211237985 0.016538461538461446 -1.48787588266226 0.029038461538461458 Q -1.4769143442007215 0.04153846153846147 -1.470952805739183 0.05673076923076917 Q -1.4649912672776446 0.07192307692307687 -1.4649912672776446 0.08769230769230763 Q -1.4649912672776446 0.10730769230769224 -1.4724912672776447 0.12461538461538457 Q -1.4799912672776445 0.14192307692307687 -1.4936451134314908 0.1538461538461538 Q -1.507298959585337 0.16576923076923072 -1.5257604980468753 0.16961538461538456 L -1.4588374211237984 0.27499999999999997 L -1.489222036508414 0.27499999999999997 L -1.553452805739183 0.1742307692307692 L -1.634222036508414 0.1742307692307692 L -1.634222036508414 0.27499999999999997 L -1.6611451134314907 0.27499999999999997 M -1.634222036508414 0.15038461538461534 L -1.5449912672776447 0.15038461538461534 Q -1.5288374211237985 0.15038461538461534 -1.5169143442007216 0.14153846153846147 Q -1.5049912672776447 0.13269230769230764 -1.498452805739183 0.11826923076923071 Q -1.4919143442007214 0.10384615384615378 -1.4919143442007214 0.08769230769230763 Q -1.4919143442007214 0.0711538461538461 -1.4994143442007215 0.05711538461538454 Q -1.5069143442007216 0.04307692307692301 -1.5194143442007215 0.03442307692307686 Q -1.5319143442007215 0.02576923076923071 -1.547298959585337 0.02576923076923071 L -1.634222036508414 0.02576923076923071 L -1.634222036508414 0.15038461538461534 M -1.3184437913161062 0.0019230769230768607 L -1.2207514836237985 0.2415384615384615 L -1.1234437913161062 0.0019230769230768607 L -1.095366868239183 0.0019230769230768607 L -1.2084437913161061 0.27499999999999997 L -1.2330591759314908 0.27499999999999997 L -1.3465207143930293 0.0019230769230768607 L -1.3184437913161062 0.0019230769230768607 M -0.9526597243088947 0.2769230769230769 Q -0.9815058781550485 0.2769230769230769 -1.004967416616587 0.26538461538461533 Q -1.0284289550781254 0.25384615384615383 -1.0453520320012024 0.2340384615384615 Q -1.0622751089242792 0.2142307692307692 -1.0715058781550486 0.18942307692307686 Q -1.0807366473858178 0.16461538461538455 -1.0807366473858178 0.1384615384615384 Q -1.0807366473858178 0.1111538461538461 -1.0711212627704332 0.0863461538461538 Q -1.0615058781550486 0.061538461538461486 -1.0440058781550485 0.042115384615384555 Q -1.0265058781550485 0.022692307692307623 -1.00304433969351 0.011346153846153784 Q -0.9795828012319716 -5.551115123125783e-17 -0.9522751089242794 -5.551115123125783e-17 Q -0.9234289550781255 -5.551115123125783e-17 -0.899967416616587 0.01192307692307687 Q -0.8765058781550485 0.023846153846153795 -0.8597751089242793 0.043846153846153785 Q -0.8430443396935101 0.06384615384615377 -0.8338135704627408 0.0884615384615384 Q -0.8245828012319716 0.11307692307692302 -0.8245828012319716 0.13884615384615379 Q -0.8245828012319716 0.1661538461538461 -0.8341981858473562 0.1909615384615384 Q -0.8438135704627409 0.2157692307692307 -0.8611212627704331 0.23519230769230764 Q -0.8784289550781255 0.2546153846153846 -0.9018904935396639 0.26576923076923076 Q -0.9253520320012024 0.2769230769230769 -0.9526597243088947 0.2769230769230769 M -1.053813570462741 0.1384615384615384 Q -1.053813570462741 0.16076923076923072 -1.0465058781550485 0.1813461538461538 Q -1.0391981858473562 0.20192307692307687 -1.0257366473858178 0.21788461538461534 Q -1.0122751089242794 0.23384615384615381 -0.9936212627704332 0.24326923076923074 Q -0.974967416616587 0.25269230769230766 -0.9526597243088947 0.25269230769230766 Q -0.9291981858473563 0.25269230769230766 -0.91054433969351 0.24288461538461534 Q -0.8918904935396639 0.23307692307692304 -0.8786212627704332 0.2167307692307692 Q -0.8653520320012024 0.20038461538461533 -0.8584289550781254 0.17999999999999994 Q -0.8515058781550485 0.15961538461538455 -0.8515058781550485 0.1384615384615384 Q -0.8515058781550485 0.11615384615384611 -0.8588135704627409 0.09576923076923072 Q -0.8661212627704331 0.07538461538461533 -0.8797751089242793 0.05923076923076917 Q -0.8934289550781255 0.04307692307692301 -0.9118904935396639 0.033846153846153776 Q -0.9303520320012024 0.02461538461538454 -0.9526597243088947 0.02461538461538454 Q -0.9757366473858178 0.02461538461538454 -0.9943904935396639 0.034230769230769176 Q -1.01304433969351 0.043846153846153785 -1.0263135704627409 0.06019230769230763 Q -1.0395828012319717 0.07653846153846147 -1.0466981858473563 0.09692307692307686 Q -1.053813570462741 0.11730769230769225 -1.053813570462741 0.1384615384615384 M -0.769976431039664 0.27499999999999997 L -0.769976431039664 0.0019230769230768607 L -0.7430533541165871 0.0019230769230768607 L -0.7430533541165871 0.27499999999999997 L -0.769976431039664 0.27499999999999997 M -0.6888280310997601 0.1365384615384615 Q -0.6888280310997601 0.11153846153846148 -0.680174184945914 0.08749999999999994 Q -0.6715203387920679 0.0634615384615384 -0.6549818772536062 0.0436538461538461 Q -0.6384434157151447 0.023846153846153795 -0.6142126464843755 0.012115384615384528 Q -0.5899818772536063 0.00038461538461531664 -0.5592126464843755 0.00038461538461531664 Q -0.522674184945914 0.00038461538461531664 -0.4967126464843755 0.017115384615384532 Q -0.47075110802283704 0.033846153846153776 -0.4584434157151447 0.05999999999999994 L -0.4795972618689909 0.07307692307692301 Q -0.4884434157151447 0.05499999999999994 -0.5019049541766831 0.04442307692307687 Q -0.5153664926382217 0.033846153846153776 -0.5305588003305293 0.02923076923076917 Q -0.545751108022837 0.02461538461538454 -0.560751108022837 0.02461538461538454 Q -0.5853664926382216 0.02461538461538454 -0.6042126464843756 0.03442307692307686 Q -0.6230588003305293 0.04423076923076916 -0.6359434157151447 0.060576923076923 Q -0.6488280310997602 0.07692307692307687 -0.6553664926382217 0.09711538461538455 Q -0.6619049541766832 0.11730769230769225 -0.6619049541766832 0.138076923076923 Q -0.6619049541766832 0.16076923076923072 -0.6542126464843755 0.18153846153846148 Q -0.6465203387920678 0.20230769230769224 -0.632674184945914 0.21826923076923072 Q -0.6188280310997601 0.2342307692307692 -0.6001741849459139 0.2436538461538461 Q -0.5815203387920678 0.25307692307692303 -0.5595972618689908 0.25307692307692303 Q -0.5442126464843755 0.25307692307692303 -0.5280588003305293 0.24769230769230766 Q -0.5119049541766831 0.24230769230769228 -0.49786649263822164 0.2311538461538461 Q -0.48382803109976014 0.21999999999999997 -0.4753664926382216 0.20230769230769224 L -0.4530588003305293 0.2138461538461538 Q -0.4615203387920678 0.2342307692307692 -0.47921264648437545 0.24846153846153843 Q -0.4969049541766832 0.26269230769230767 -0.5186357234074523 0.26999999999999996 Q -0.5403664926382217 0.27730769230769226 -0.5611357234074524 0.27730769230769226 Q -0.5892126464843754 0.27730769230769226 -0.612674184945914 0.26519230769230767 Q -0.6361357234074524 0.25307692307692303 -0.653251108022837 0.23288461538461536 Q -0.6703664926382217 0.21269230769230765 -0.6795972618689909 0.18749999999999994 Q -0.6888280310997601 0.16230769230769226 -0.6888280310997601 0.1365384615384615 M -0.2196072152944716 0.2511538461538461 L -0.2196072152944716 0.27499999999999997 L -0.4030687537560101 0.27499999999999997 L -0.4030687537560101 0.0019230769230768607 L -0.22306875375601007 0.0019230769230768607 L -0.22306875375601007 0.02576923076923071 L -0.37614567683293315 0.02576923076923071 L -0.37614567683293315 0.12423076923076917 L -0.2426841383713947 0.12423076923076917 L -0.2426841383713947 0.14692307692307688 L -0.37614567683293315 0.14692307692307688 L -0.37614567683293315 0.2511538461538461 L -0.2196072152944716 0.2511538461538461 M -0.07497624323918314 0.0019230769230768607 L 0.014254525991586109 0.1488461538461538 L 0.1042545259915861 0.0019230769230768607 L 0.13348529522235533 0.0019230769230768607 L 0.02771606445312455 0.17346153846153842 L 0.02771606445312455 0.27499999999999997 L 0.0007929875300476397 0.27499999999999997 L 0.0007929875300476397 0.17269230769230764 L -0.10459162785456777 0.0019230769230768607 L -0.07497624323918314 0.0019230769230768607 M 0.26964064378004765 0.2769230769230769 Q 0.2407944899338938 0.2769230769230769 0.21733295147235535 0.26538461538461533 Q 0.1938714130108169 0.25384615384615383 0.17694833608773997 0.2340384615384615 Q 0.16002525916466304 0.2142307692307692 0.1507944899338938 0.18942307692307686 Q 0.14156372070312456 0.16461538461538455 0.14156372070312456 0.1384615384615384 Q 0.14156372070312456 0.1111538461538461 0.15117910531850917 0.0863461538461538 Q 0.16079448993389378 0.061538461538461486 0.1782944899338938 0.042115384615384555 Q 0.1957944899338938 0.022692307692307623 0.21925602839543226 0.011346153846153784 Q 0.2427175668569707 -5.551115123125783e-17 0.270025259164663 -5.551115123125783e-17 Q 0.2988714130108169 -5.551115123125783e-17 0.32233295147235536 0.01192307692307687 Q 0.34579448993389383 0.023846153846153795 0.36252525916466305 0.043846153846153785 Q 0.37925602839543227 0.06384615384615377 0.38848679762620153 0.0884615384615384 Q 0.3977175668569708 0.11307692307692302 0.3977175668569708 0.13884615384615379 Q 0.3977175668569708 0.1661538461538461 0.3881021822415861 0.1909615384615384 Q 0.3784867976262015 0.2157692307692307 0.3611791053185092 0.23519230769230764 Q 0.3438714130108169 0.2546153846153846 0.32040987454927844 0.26576923076923076 Q 0.29694833608773996 0.2769230769230769 0.26964064378004765 0.2769230769230769 M 0.1684867976262015 0.1384615384615384 Q 0.1684867976262015 0.16076923076923072 0.1757944899338938 0.1813461538461538 Q 0.18310218224158611 0.20192307692307687 0.19656372070312456 0.21788461538461534 Q 0.21002525916466303 0.23384615384615381 0.22867910531850918 0.24326923076923074 Q 0.24733295147235534 0.25269230769230766 0.26964064378004765 0.25269230769230766 Q 0.29310218224158613 0.25269230769230766 0.31175602839543226 0.24288461538461534 Q 0.3304098745492784 0.23307692307692304 0.3436791053185092 0.2167307692307692 Q 0.35694833608774 0.20038461538461533 0.36387141301081694 0.17999999999999994 Q 0.37079448993389386 0.15961538461538455 0.37079448993389386 0.1384615384615384 Q 0.37079448993389386 0.11615384615384611 0.3634867976262015 0.09576923076923072 Q 0.3561791053185092 0.07538461538461533 0.34252525916466303 0.05923076923076917 Q 0.3288714130108169 0.04307692307692301 0.31040987454927843 0.033846153846153776 Q 0.29194833608773996 0.02461538461538454 0.26964064378004765 0.02461538461538454 Q 0.24656372070312457 0.02461538461538454 0.2279098745492784 0.034230769230769176 Q 0.20925602839543228 0.043846153846153785 0.1959867976262015 0.06019230769230763 Q 0.18271756685697071 0.07653846153846147 0.1756021822415861 0.09692307692307686 Q 0.1684867976262015 0.11730769230769225 0.1684867976262015 0.1384615384615384 M 0.5634777832031246 0.2769230769230769 Q 0.5311700908954322 0.2769230769230769 0.50886239858774 0.26538461538461533 Q 0.4865547062800476 0.25384615384615383 0.4734777832031245 0.2344230769230769 Q 0.46040086012620146 0.21499999999999997 0.454439321664663 0.19038461538461532 Q 0.44847778320312454 0.16576923076923072 0.44847778320312454 0.13961538461538456 L 0.44847778320312454 0.0019230769230768607 L 0.47501624474158605 0.0019230769230768607 L 0.47501624474158605 0.13961538461538456 Q 0.47501624474158605 0.16076923076923072 0.47943932166466297 0.1811538461538461 Q 0.48386239858773994 0.2015384615384615 0.49386239858773995 0.21769230769230766 Q 0.50386239858774 0.23384615384615381 0.5207854755108169 0.24326923076923074 Q 0.5377085524338938 0.25269230769230766 0.5630931678185092 0.25269230769230766 Q 0.5892470139723553 0.25269230769230766 0.60636239858774 0.24288461538461534 Q 0.6234777832031245 0.23307692307692304 0.6332854755108168 0.21692307692307689 Q 0.6430931678185092 0.20076923076923073 0.6473239370492784 0.18057692307692302 Q 0.6515547062800476 0.16038461538461535 0.6515547062800476 0.13961538461538456 L 0.6515547062800476 0.0019230769230768607 L 0.6784777832031246 0.0019230769230768607 L 0.6784777832031246 0.13961538461538456 Q 0.6784777832031246 0.16692307692307687 0.6723239370492784 0.19192307692307686 Q 0.6661700908954322 0.21692307692307689 0.6525162447415861 0.23576923076923073 Q 0.63886239858774 0.2546153846153846 0.616939321664663 0.26576923076923076 Q 0.5950162447415861 0.2769230769230769 0.5634777832031246 0.2769230769230769 M 0.7465565842848554 0.27499999999999997 L 0.7465565842848554 0.0019230769230768607 L 0.8619411996694708 0.0019230769230768607 Q 0.8796335073617785 0.0019230769230768607 0.8942488919771631 0.009230769230769154 Q 0.9088642765925476 0.016538461538461446 0.9198258150540861 0.029038461538461458 Q 0.9307873535156246 0.04153846153846147 0.936748891977163 0.05673076923076917 Q 0.9427104304387015 0.07192307692307687 0.9427104304387015 0.08769230769230763 Q 0.9427104304387015 0.10730769230769224 0.9352104304387014 0.12461538461538457 Q 0.9277104304387015 0.14192307692307687 0.9140565842848554 0.1538461538461538 Q 0.9004027381310092 0.16576923076923072 0.8819411996694707 0.16961538461538456 L 0.9488642765925477 0.27499999999999997 L 0.9184796612079322 0.27499999999999997 L 0.854248891977163 0.1742307692307692 L 0.7734796612079322 0.1742307692307692 L 0.7734796612079322 0.27499999999999997 L 0.7465565842848554 0.27499999999999997 M 0.7734796612079322 0.15038461538461534 L 0.8627104304387014 0.15038461538461534 Q 0.8788642765925476 0.15038461538461534 0.8907873535156245 0.14153846153846147 Q 0.9027104304387015 0.13269230769230764 0.9092488919771631 0.11826923076923071 Q 0.9157873535156246 0.10384615384615378 0.9157873535156246 0.08769230769230763 Q 0.9157873535156246 0.0711538461538461 0.9082873535156246 0.05711538461538454 Q 0.9007873535156246 0.04307692307692301 0.8882873535156246 0.03442307692307686 Q 0.8757873535156246 0.02576923076923071 0.8604027381310092 0.02576923076923071 L 0.7734796612079322 0.02576923076923071 L 0.7734796612079322 0.15038461538461534 M 1.0854104379507208 0.1365384615384615 Q 1.0854104379507208 0.11153846153846148 1.094064284104567 0.08749999999999994 Q 1.102718130258413 0.0634615384615384 1.1192565917968746 0.0436538461538461 Q 1.135795053335336 0.023846153846153795 1.1600258225661053 0.012115384615384528 Q 1.1842565917968746 0.00038461538461531664 1.2150258225661055 0.00038461538461531664 Q 1.2515642841045669 0.00038461538461531664 1.2775258225661055 0.017115384615384532 Q 1.3034873610276438 0.033846153846153776 1.3157950533353362 0.05999999999999994 L 1.2946412071814901 0.07307692307692301 Q 1.2857950533353362 0.05499999999999994 1.2723335148737978 0.04442307692307687 Q 1.2588719764122591 0.033846153846153776 1.2436796687199516 0.02923076923076917 Q 1.2284873610276439 0.02461538461538454 1.2134873610276438 0.02461538461538454 Q 1.1888719764122593 0.02461538461538454 1.1700258225661053 0.03442307692307686 Q 1.1511796687199516 0.04423076923076916 1.1382950533353362 0.060576923076923 Q 1.1254104379507208 0.07692307692307687 1.1188719764122592 0.09711538461538455 Q 1.1123335148737976 0.11730769230769225 1.1123335148737976 0.138076923076923 Q 1.1123335148737976 0.16076923076923072 1.1200258225661053 0.18153846153846148 Q 1.1277181302584132 0.20230769230769224 1.141564284104567 0.21826923076923072 Q 1.1554104379507208 0.2342307692307692 1.174064284104567 0.2436538461538461 Q 1.1927181302584131 0.25307692307692303 1.21464120718149 0.25307692307692303 Q 1.2300258225661054 0.25307692307692303 1.2461796687199516 0.24769230769230766 Q 1.2623335148737977 0.24230769230769228 1.2763719764122592 0.2311538461538461 Q 1.2904104379507209 0.21999999999999997 1.2988719764122592 0.20230769230769224 L 1.3211796687199515 0.2138461538461538 Q 1.3127181302584132 0.2342307692307692 1.2950258225661053 0.24846153846153843 Q 1.2773335148737976 0.26269230769230767 1.2556027456430285 0.26999999999999996 Q 1.2338719764122592 0.27730769230769226 1.2131027456430286 0.27730769230769226 Q 1.1850258225661054 0.27730769230769226 1.161564284104567 0.26519230769230767 Q 1.1381027456430284 0.25307692307692303 1.1209873610276437 0.23288461538461536 Q 1.1038719764122593 0.21269230769230765 1.09464120718149 0.18749999999999994 Q 1.0854104379507208 0.16230769230769226 1.0854104379507208 0.1365384615384615 M 1.5865543306790861 0.0019230769230768607 L 1.5865543306790861 0.27499999999999997 L 1.5600158691406247 0.27499999999999997 L 1.5600158691406247 0.14730769230769225 L 1.3980927922175477 0.14730769230769225 L 1.3980927922175477 0.27499999999999997 L 1.3711697152944708 0.27499999999999997 L 1.3711697152944708 0.0019230769230768607 L 1.3980927922175477 0.0019230769230768607 L 1.3980927922175477 0.1234615384615384 L 1.5600158691406247 0.1234615384615384 L 1.5600158691406247 0.0019230769230768607 L 1.5865543306790861 0.0019230769230768607 M 1.7688528207632208 0.2769230769230769 Q 1.740006666917067 0.2769230769230769 1.7165451284555286 0.26538461538461533 Q 1.6930835899939902 0.25384615384615383 1.6761605130709132 0.2340384615384615 Q 1.6592374361478364 0.2142307692307692 1.650006666917067 0.18942307692307686 Q 1.6407758976862978 0.16461538461538455 1.6407758976862978 0.1384615384615384 Q 1.6407758976862978 0.1111538461538461 1.6503912823016824 0.0863461538461538 Q 1.660006666917067 0.061538461538461486 1.677506666917067 0.042115384615384555 Q 1.6950066669170671 0.022692307692307623 1.7184682053786056 0.011346153846153784 Q 1.741929743840144 -5.551115123125783e-17 1.7692374361478362 -5.551115123125783e-17 Q 1.7980835899939902 -5.551115123125783e-17 1.8215451284555286 0.01192307692307687 Q 1.845006666917067 0.023846153846153795 1.8617374361478363 0.043846153846153785 Q 1.8784682053786055 0.06384615384615377 1.8876989746093749 0.0884615384615384 Q 1.896929743840144 0.11307692307692302 1.896929743840144 0.13884615384615379 Q 1.896929743840144 0.1661538461538461 1.8873143592247594 0.1909615384615384 Q 1.8776989746093746 0.2157692307692307 1.8603912823016824 0.23519230769230764 Q 1.8430835899939901 0.2546153846153846 1.8196220515324517 0.26576923076923076 Q 1.7961605130709133 0.2769230769230769 1.7688528207632208 0.2769230769230769 M 1.6676989746093747 0.1384615384615384 Q 1.6676989746093747 0.16076923076923072 1.6750066669170671 0.1813461538461538 Q 1.6823143592247594 0.20192307692307687 1.6957758976862978 0.21788461538461534 Q 1.7092374361478362 0.23384615384615381 1.7278912823016825 0.24326923076923074 Q 1.7465451284555287 0.25269230769230766 1.7688528207632208 0.25269230769230766 Q 1.7923143592247595 0.25269230769230766 1.8109682053786056 0.24288461538461534 Q 1.8296220515324517 0.23307692307692304 1.8428912823016825 0.2167307692307692 Q 1.8561605130709133 0.20038461538461533 1.8630835899939902 0.17999999999999994 Q 1.870006666917067 0.15961538461538455 1.870006666917067 0.1384615384615384 Q 1.870006666917067 0.11615384615384611 1.8626989746093747 0.09576923076923072 Q 1.8553912823016825 0.07538461538461533 1.8417374361478362 0.05923076923076917 Q 1.8280835899939902 0.04307692307692301 1.8096220515324517 0.033846153846153776 Q 1.7911605130709132 0.02461538461538454 1.7688528207632208 0.02461538461538454 Q 1.7457758976862978 0.02461538461538454 1.7271220515324517 0.034230769230769176 Q 1.7084682053786056 0.043846153846153785 1.6951989746093747 0.06019230769230763 Q 1.681929743840144 0.07653846153846147 1.6748143592247593 0.09692307692307686 Q 1.6676989746093747 0.11730769230769225 1.6676989746093747 0.1384615384615384 M 1.9515361140324516 0.27499999999999997 L 1.9515361140324516 0.0019230769230768607 L 1.9784591909555285 0.0019230769230768607 L 1.9784591909555285 0.27499999999999997 L 1.9515361140324516 0.27499999999999997 M 2.0326845139723555 0.1365384615384615 Q 2.0326845139723555 0.11153846153846148 2.041338360126202 0.08749999999999994 Q 2.0499922062800477 0.0634615384615384 2.066530667818509 0.0436538461538461 Q 2.083069129356971 0.023846153846153795 2.10729989858774 0.012115384615384528 Q 2.1315306678185095 0.00038461538461531664 2.16229989858774 0.00038461538461531664 Q 2.1988383601262016 0.00038461538461531664 2.22479989858774 0.017115384615384532 Q 2.250761437049279 0.033846153846153776 2.2630691293569707 0.05999999999999994 L 2.2419152832031246 0.07307692307692301 Q 2.233069129356971 0.05499999999999994 2.2196075908954325 0.04442307692307687 Q 2.206146052433894 0.033846153846153776 2.190953744741586 0.02923076923076917 Q 2.1757614370492786 0.02461538461538454 2.1607614370492785 0.02461538461538454 Q 2.1361460524338938 0.02461538461538454 2.1172998985877403 0.03442307692307686 Q 2.0984537447415863 0.04423076923076916 2.085569129356971 0.060576923076923 Q 2.0726845139723555 0.07692307692307687 2.066146052433894 0.09711538461538455 Q 2.0596075908954323 0.11730769230769225 2.0596075908954323 0.138076923076923 Q 2.0596075908954323 0.16076923076923072 2.06729989858774 0.18153846153846148 Q 2.0749922062800477 0.20230769230769224 2.0888383601262017 0.21826923076923072 Q 2.1026845139723553 0.2342307692307692 2.1213383601262015 0.2436538461538461 Q 2.1399922062800476 0.25307692307692303 2.1619152832031245 0.25307692307692303 Q 2.1772998985877403 0.25307692307692303 2.1934537447415865 0.24769230769230766 Q 2.2096075908954322 0.24230769230769228 2.223646052433894 0.2311538461538461 Q 2.2376845139723556 0.21999999999999997 2.246146052433894 0.20230769230769224 L 2.2684537447415862 0.2138461538461538 Q 2.2599922062800477 0.2342307692307692 2.2422998985877403 0.24846153846153843 Q 2.2246075908954324 0.26269230769230767 2.2028768216646633 0.26999999999999996 Q 2.181146052433894 0.27730769230769226 2.1603768216646633 0.27730769230769226 Q 2.13229989858774 0.27730769230769226 2.1088383601262017 0.26519230769230767 Q 2.085376821664663 0.25307692307692303 2.0682614370492787 0.23288461538461536 Q 2.051146052433894 0.21269230769230765 2.041915283203125 0.18749999999999994 Q 2.0326845139723555 0.16230769230769226 2.0326845139723555 0.1365384615384615 M 2.501905329777644 0.2511538461538461 L 2.501905329777644 0.27499999999999997 L 2.318443791316106 0.27499999999999997 L 2.318443791316106 0.0019230769230768607 L 2.498443791316106 0.0019230769230768607 L 2.498443791316106 0.02576923076923071 L 2.3453668682391826 0.02576923076923071 L 2.3453668682391826 0.12423076923076917 L 2.478828406700721 0.12423076923076917 L 2.478828406700721 0.14692307692307688 L 2.3453668682391826 0.14692307692307688 L 2.3453668682391826 0.2511538461538461 L 2.501905329777644 0.2511538461538461" fill="#2c1514" fill-rule="nonzero"></path></g><g clip-path="url(#SvgjsClipPath1002)"><g clip-path="url(#a00c0134a-536e-431e-9ca7-524ac4b456d2ede5b873-af9c-4bff-bf07-bd4e2335d9d8)"><path d=" M 2.7523667983328277 -3.8627435316467307 L -2.8143955537157392 -3.8627435316467307 L -2.8143955537157392 -4.346595044288008 L 2.7523667983328277 -4.346595044288008 Z" fill="#0d0d0d" transform="matrix(1,0,0,1,0,0)" fill-rule="nonzero"></path></g><g clip-path="url(#a00c0134a-536e-431e-9ca7-524ac4b456d2ede5b873-af9c-4bff-bf07-bd4e2335d9d8)"><path d=" M 2.7523667983328277 -3.3788920190054537 L -2.8143955537157392 -3.3788920190054537 L -2.8143955537157392 -3.8627435316467307 L 2.7523667983328277 -3.8627435316467307 Z" fill="#2c1514" transform="matrix(1,0,0,1,0,0)" fill-rule="nonzero"></path></g><g clip-path="url(#a00c0134a-536e-431e-9ca7-524ac4b456d2ede5b873-af9c-4bff-bf07-bd4e2335d9d8)"><path d=" M 2.7523667983328277 -2.895040506364176 L -2.8143955537157392 -2.895040506364176 L -2.8143955537157392 -3.3788920190054537 L 2.7523667983328277 -3.3788920190054537 Z" fill="#4d1a1f" transform="matrix(1,0,0,1,0,0)" fill-rule="nonzero"></path></g><g clip-path="url(#a00c0134a-536e-431e-9ca7-524ac4b456d2ede5b873-af9c-4bff-bf07-bd4e2335d9d8)"><path d=" M 2.7523667983328277 -2.411188993722899 L -2.8143955537157392 -2.411188993722899 L -2.8143955537157392 -2.895040506364176 L 2.7523667983328277 -2.895040506364176 Z" fill="#6e252b" transform="matrix(1,0,0,1,0,0)" fill-rule="nonzero"></path></g><g clip-path="url(#a00c0134a-536e-431e-9ca7-524ac4b456d2ede5b873-af9c-4bff-bf07-bd4e2335d9d8)"><path d=" M 2.7523667983328277 -1.4434339693524731 L -2.8143955537157392 -1.4434339693524731 L -2.8143955537157392 -1.9272854819937506 L 2.7523667983328277 -1.9272854819937506 Z" fill="#955f42" transform="matrix(1,0,0,1,0,0)" fill-rule="nonzero"></path></g><g clip-path="url(#a00c0134a-536e-431e-9ca7-524ac4b456d2ede5b873-af9c-4bff-bf07-bd4e2335d9d8)"><path d=" M 2.7523667983328277 -1.9272854819937506 L -2.8143955537157392 -1.9272854819937506 L -2.8143955537157392 -2.4111369946350276 L 2.7523667983328277 -2.4111369946350276 Z" fill="#7d3c2f" transform="matrix(1,0,0,1,0,0)" fill-rule="nonzero"></path></g><g clip-path="url(#a00c0134a-536e-431e-9ca7-524ac4b456d2ede5b873-af9c-4bff-bf07-bd4e2335d9d8)"><path d=" M 2.7523667983328277 -0.959582456711197 L -2.8143955537157392 -0.959582456711197 L -2.8143955537157392 -1.4434339693524731 L 2.7523667983328277 -1.4434339693524731 Z" fill="#b6734e" transform="matrix(1,0,0,1,0,0)" fill-rule="nonzero"></path></g><g clip-path="url(#a00c0134a-536e-431e-9ca7-524ac4b456d2ede5b873-af9c-4bff-bf07-bd4e2335d9d8)"><path d=" M 0.5949246425578054 -0.959582456711197 L 2.752418797420699 -0.959582456711197 L 2.752418797420699 -0.1875000000000009 L -2.8143955537157392 -0.1875000000000009 L -2.8143955537157392 -0.959582456711197 Z" fill="#d07665" transform="matrix(1,0,0,1,0,0)" fill-rule="nonzero"></path></g></g></g><defs><clipPath id="SvgjsClipPath1002"><path d=" M -1.3686649136334796 -4.346631441660548 h 2.7373298272669593 v 4.159131441660548 h -2.7373298272669593 Z"></path></clipPath><clipPath id="a00c0134a-536e-431e-9ca7-524ac4b456d2ede5b873-af9c-4bff-bf07-bd4e2335d9d8"><path d=" M -0.2546884541693122 -4.346647043375879 L -0.6652212529122334 -3.7195380436495165 L -0.2331088327027746 -3.5488770372563225 L 0.15896428984587962 -4.111507168022428 Z M -0.1356625420321942 -3.5236054805509314 L 0.1322367586800961 -3.3567404075723326 L 0.08112165530273185 -3.0587336349826324 L -0.3335190713820124 -2.927643934459402 L -0.04976004886901397 -2.7824104820352122 L 0.6409438353237944 -3.8194282914500417 L 0.23524695175289234 -4.098871389669732 Z M 0.07118982951933739 -2.811789966682426 L 0.45801104419300365 -2.632861105317715 L 1.0300530098637923 -3.3516444969609585 L 0.6803591439301446 -3.7006103756644095 Z M -1.3686649136334796 -2.885160679668653 L -0.5186878232912641 -1.5691157647371017 C -0.5186878232912641 -1.5691157647371017 -0.5818147159668697 -1.1827625418542769 -0.6207100336945081 -0.9462186911283053 C -0.6595533523342753 -0.7095708422265905 -0.7376559823167792 -0.1875 -0.7376559823167792 -0.1875 L -0.07986752074642389 -0.1875 L 0.15563634822212458 -1.2352296215162917 L 0.1032212676479809 -0.1875 L 0.18293586935449113 -0.1875 L 0.2963458800015226 -1.4716694740665215 L 0.32525737285789535 -0.1875 L 0.7304862646379566 -0.1875 L 0.7489459408322234 -1.5208086121047812 C 0.7489459408322234 -1.5208086121047812 0.8924114242687933 -1.647686386510446 0.9723860214146594 -1.8250032761511514 C 1.0986398067658707 -2.105122362513167 1.1278112950615993 -2.61934134247121 1.1278112950615993 -2.61934134247121 L 0.7392221114003135 -2.2547757374064066 C 0.7392221114003135 -2.2547757374064066 0.5813528806234283 -2.375465620355402 0.4478192229702529 -2.481699756876211 C 0.3534928775719426 -2.5567344406743153 0.02527463492909021 -2.6748243692297526 0.02527463492909021 -2.6748243692297526 L 0.157352318121873 -1.940701246664513 L -0.10555507015478449 -2.7169956294932747 L -0.3584786335601764 -2.7955662512666195 L -0.47740054752155203 -2.9684632184382744 L 0.016850782693959898 -3.090661074935534 L 0.07503776202180434 -3.351904492400314 L -0.7890830802213707 -3.6898465644750758 Z M 0.5370496577571882 -2.594797772996016 L 0.7519098888408806 -2.343070188611661 L 1.368671070080879 -2.8851606796686537 L 1.0772681816508183 -3.266625988291588 Z"></path></clipPath></defs></svg>