<?xml version="1.0" standalone="no"?>
<!DOCTYPE svg PUBLIC "-//W3C//DTD SVG 20010904//EN"
 "http://www.w3.org/TR/2001/REC-SVG-20010904/DTD/svg10.dtd">
<svg version="1.0" xmlns="http://www.w3.org/2000/svg"
 width="474.000000pt" height="474.000000pt" viewBox="0 0 474.000000 474.000000"
 preserveAspectRatio="xMidYMid meet">

<g transform="translate(0.000000,474.000000) scale(0.100000,-0.100000)"
fill="#000000" stroke="none">
<path d="M2260 4344 c-306 -25 -513 -80 -758 -199 -284 -138 -534 -345 -718
-595 -440 -597 -513 -1374 -189 -2035 280 -574 801 -964 1442 -1080 124 -23
384 -30 523 -16 686 72 1282 490 1576 1106 72 152 113 268 148 426 146 659
-52 1338 -529 1815 -362 363 -811 557 -1330 577 -66 2 -140 3 -165 1z m229
-909 c93 -22 194 -79 265 -150 106 -106 158 -233 158 -385 0 -152 -52 -279
-158 -385 -302 -302 -810 -165 -920 248 -18 68 -18 208 1 277 63 236 282 406
525 409 36 0 94 -6 129 -14z m241 -1240 c248 -64 415 -182 501 -353 l34 -67 5
-233 c3 -129 3 -236 1 -238 -2 -2 -413 -4 -913 -4 l-908 0 0 203 c0 139 5 218
14 253 52 197 244 363 496 429 151 40 200 44 435 41 212 -3 238 -5 335 -31z"/>
</g>
</svg>
